<svg width="37" height="41" viewBox="0 0 37 41" fill="none" xmlns="http://www.w3.org/2000/svg">
<path d="M35.8428 16.4318L19.411 0V9.79156L28.0574 18.41L18.332 28.1501L19.4278 29.2077V36.8199L35.8428 20.4243C36.1054 20.1622 36.3138 19.8509 36.456 19.5082C36.5982 19.1655 36.6714 18.7981 36.6714 18.427C36.6714 18.056 36.5982 17.6886 36.456 17.3459C36.3138 17.0031 36.1054 16.6918 35.8428 16.4298V16.4318Z" fill="#404040"/>
<path d="M0.828612 24.483L17.2604 40.9148V31.1212L8.61654 22.4814L18.3307 12.7626L17.2344 11.7051V4.08008L0.828612 20.4864C0.565948 20.7485 0.35756 21.0598 0.215374 21.4025C0.0731882 21.7452 0 22.1126 0 22.4837C0 22.8547 0.0731882 23.2221 0.215374 23.5648C0.35756 23.9076 0.565948 24.2189 0.828612 24.4809V24.483Z" fill="#207144"/>
</svg>
