<svg width="214" height="41" viewBox="0 0 214 41" fill="none" xmlns="http://www.w3.org/2000/svg">
<g clip-path="url(#clip0_5983_3525)">
<path d="M58.3286 18.1961L56.1091 18.5678L55.8214 16.6624C55.7981 16.3681 55.7112 16.0823 55.5668 15.8248C55.3259 15.5529 54.6717 15.3956 53.5932 15.3589H52.7434C51.9243 15.3161 51.1033 15.3862 50.3034 15.5672C49.8792 15.6405 49.5758 16.054 49.3823 16.8132C49.1756 17.7249 49.079 18.6581 49.0946 19.5928V24.9005C49.0993 25.2529 49.1414 25.6038 49.2204 25.9474C49.248 26.2099 49.3437 26.4607 49.4979 26.675C49.6792 26.8155 49.8803 26.9284 50.0946 27.01C50.3914 27.1361 50.7092 27.2052 51.0315 27.2137H52.4761C52.9043 27.216 53.3324 27.1968 53.7587 27.1562C54.1197 27.1195 54.4237 27.0777 54.6752 27.0304C54.8981 26.9903 55.1093 26.9011 55.2934 26.7692C55.427 26.6688 55.5514 26.5567 55.6651 26.4341C55.7673 26.2928 55.8354 26.1296 55.8642 25.9575C55.9047 25.7744 55.9345 25.5891 55.9533 25.4025L56.0006 24.7009C56.0058 24.4327 56.0286 24.1651 56.0688 23.8999L58.3143 24.2818C58.2634 24.9947 58.1993 25.5645 58.131 25.9937C58.0627 26.42 57.9487 26.8377 57.7909 27.2397C57.667 27.5888 57.4585 27.9018 57.184 28.1506C56.8844 28.3908 56.5462 28.5784 56.1839 28.7056C55.7087 28.8801 55.2119 28.9892 54.7073 29.0299C54.1421 29.0768 53.4405 29.1033 52.6135 29.1033C52.072 29.1152 51.5302 29.096 50.9908 29.0457C50.546 29.0153 50.1057 28.9382 49.6771 28.8156C49.2845 28.7056 48.9388 28.5956 48.6302 28.4856C48.3281 28.374 48.061 28.1844 47.8557 27.9362C47.6307 27.6694 47.4423 27.4388 47.2906 27.2504C47.1057 26.9677 46.9793 26.6509 46.9189 26.3186C46.814 25.8893 46.7406 25.5232 46.6831 25.2192C46.6263 24.7631 46.5948 24.3041 46.5889 23.8444C46.5889 23.2334 46.5472 22.7084 46.5416 22.2741C46.536 21.8398 46.5416 21.2272 46.5416 20.4105C46.5416 19.6778 46.5416 19.0444 46.5833 18.5102C46.6093 17.9964 46.6636 17.4845 46.7457 16.9766C46.8072 16.5686 46.9125 16.1684 47.0599 15.7831C47.1897 15.4559 47.366 15.1491 47.5833 14.8721C47.7917 14.601 48.0512 14.3734 48.3471 14.2021C48.6867 14.0187 49.0468 13.8763 49.42 13.7779C49.8757 13.6533 50.3418 13.5705 50.8126 13.5305C51.336 13.4831 51.9119 13.4622 52.5871 13.4622C53.3191 13.4527 54.0509 13.4964 54.7765 13.5931C55.317 13.6647 55.8452 13.809 56.3469 14.0223C56.7814 14.2013 57.1568 14.4988 57.4304 14.8808C57.7158 15.285 57.9266 15.737 58.0531 16.2154C58.2163 16.8637 58.3087 17.5278 58.3286 18.1961Z" fill="#207144"/>
<path d="M67.5902 29.1009C66.7439 29.1096 65.8978 29.0676 65.0565 28.9751C64.4461 28.9195 63.8533 28.7411 63.3136 28.4506C62.8885 28.2256 62.5087 27.9238 62.1934 27.5606C61.8823 27.1153 61.6765 26.6052 61.5915 26.0687C61.4471 25.4037 61.3579 24.7279 61.3247 24.0483C61.2931 23.3782 61.2773 22.4779 61.2773 21.2635C61.2773 20.3791 61.2773 19.6408 61.3089 19.044C61.3336 18.4607 61.3878 17.879 61.4713 17.3011C61.5301 16.8303 61.6323 16.366 61.7769 15.9141C61.9016 15.557 62.0779 15.2201 62.3003 14.9141C62.5068 14.6208 62.7747 14.3762 63.0854 14.1971C63.4385 14.0097 63.8129 13.8656 64.2006 13.7679C64.6848 13.6364 65.181 13.554 65.6818 13.522C66.2052 13.4802 66.8529 13.4593 67.5922 13.4593C68.2297 13.4453 68.8675 13.4662 69.5027 13.522C70.0034 13.554 70.4996 13.6364 70.9839 13.7679C71.3715 13.8656 71.7459 14.0097 72.099 14.1971C72.4097 14.3762 72.6777 14.6208 72.8841 14.9141C73.1065 15.2201 73.2829 15.557 73.4076 15.9141C73.5521 16.366 73.6544 16.8303 73.7131 17.3011C73.7967 17.879 73.8509 18.4607 73.8755 19.044C73.8755 19.6408 73.9071 20.3786 73.9071 21.2635C73.9071 22.452 73.9071 23.3573 73.8597 24.0483C73.8265 24.7279 73.7373 25.4037 73.5929 26.0687C73.5066 26.6079 73.2976 27.1201 72.9819 27.5657C72.6683 27.9307 72.2882 28.2328 71.8617 28.4557C71.3199 28.7459 70.7253 28.9239 70.1132 28.9792C69.2753 29.0696 68.4328 29.1102 67.5902 29.1009ZM67.6217 27.2113C68.5298 27.2297 69.4366 27.133 70.3204 26.9236C70.5414 26.8761 70.7388 26.7527 70.8783 26.5749C71.0178 26.3971 71.0907 26.176 71.0842 25.9501C71.186 24.6483 71.2369 23.1377 71.2369 21.4183C71.2369 20.8531 71.2369 20.0436 71.1636 18.9845C71.0903 17.9254 71.0954 17.1473 71.0954 16.6341C71.0983 16.4893 71.0734 16.3453 71.0221 16.2099C70.9715 16.0826 70.8863 15.972 70.7761 15.8907C70.6672 15.8066 70.5518 15.7313 70.4309 15.6656C70.2824 15.5867 70.121 15.535 69.9543 15.5129L69.4309 15.4187C69.2322 15.3831 69.0309 15.3639 68.829 15.3611H66.3809C66.1789 15.3628 65.9775 15.381 65.7785 15.4156L65.2551 15.5098C65.0886 15.532 64.9273 15.5837 64.779 15.6626C64.6579 15.7283 64.5423 15.8035 64.4333 15.8876C64.323 15.969 64.2378 16.0796 64.1873 16.2069C64.1359 16.3423 64.1111 16.4862 64.114 16.631C64.114 17.1545 64.114 17.9289 64.0458 18.9814C63.9775 20.0339 63.9775 20.8501 63.9775 21.4153C63.9775 23.1322 64.0264 24.6428 64.1242 25.947C64.1218 26.1799 64.2004 26.4064 64.3465 26.5877C64.4925 26.7691 64.6971 26.8941 64.9251 26.9414C65.8065 27.1597 66.7146 27.2506 67.6217 27.2113Z" fill="#207144"/>
<path d="M89.6762 28.8959H87.2107L86.949 27.0064C86.394 28.4022 84.9371 29.1001 82.5782 29.1001C82.0122 29.1049 81.4468 29.0628 80.8877 28.9744C80.4365 28.9112 80.0004 28.7675 79.6 28.5502C79.2728 28.3741 78.9642 28.1655 78.6789 27.9275C78.3935 27.6734 78.1743 27.3536 78.0404 26.9957C77.8862 26.634 77.7534 26.2635 77.6427 25.8862C77.5278 25.4316 77.4561 24.9672 77.4283 24.4992C77.3866 23.9024 77.355 23.3841 77.3499 22.9289C77.3448 22.4736 77.3499 21.882 77.3499 21.1228C77.3499 20.3636 77.3499 19.748 77.3866 19.2067C77.4232 18.6655 77.4548 18.1599 77.5225 17.6049C77.5739 17.1528 77.665 16.7063 77.7949 16.2703C77.9096 15.9059 78.0632 15.5549 78.2532 15.2234C78.4251 14.9072 78.6603 14.6299 78.9442 14.4087C79.2422 14.1878 79.5656 14.0034 79.9075 13.8593C80.32 13.6911 80.7531 13.5784 81.1953 13.5243C81.7423 13.4579 82.293 13.4265 82.844 13.4301C83.7817 13.3859 84.7177 13.5466 85.5869 13.9011C86.2293 14.2041 86.7312 14.7416 86.9897 15.4032V8.07348L89.6884 7.85352L89.6762 28.8959ZM86.9775 25.3994V17.417C87.0127 17.1036 86.9628 16.7865 86.8329 16.4991C86.7031 16.2118 86.4982 15.9647 86.2397 15.784C85.7475 15.4873 84.821 15.339 83.4601 15.339C82.6682 15.3105 81.876 15.3879 81.1046 15.5691C80.8736 15.6624 80.6725 15.8171 80.5231 16.0164C80.3737 16.2158 80.2816 16.4522 80.2568 16.7C80.0911 17.5321 80.0174 18.3799 80.0369 19.2281C80.0369 20.774 80.063 22.9341 80.1153 25.7085C80.1116 25.9592 80.1783 26.2059 80.3078 26.4205C80.4373 26.6352 80.6245 26.8093 80.848 26.9229C81.6946 27.1828 82.5815 27.2863 83.4652 27.2284C84.3753 27.2894 85.2882 27.1593 86.145 26.8465C86.4022 26.7039 86.6154 26.4937 86.7617 26.2386C86.908 25.9836 86.9818 25.6934 86.975 25.3994H86.9775Z" fill="#404040"/>
<path d="M105.467 21.168C104.373 21.2779 103.693 21.3406 103.431 21.3564H95.9616C95.9616 22.6802 95.9982 24.1336 96.0715 25.7165C96.0665 25.9741 96.1393 26.2273 96.2802 26.443C96.4212 26.6587 96.6238 26.8269 96.8618 26.9258C97.7728 27.1769 98.719 27.276 99.6623 27.2191C100.11 27.2241 100.557 27.2049 101.002 27.1615C101.316 27.1355 101.623 27.0613 101.913 26.9416C102.098 26.8588 102.274 26.7564 102.437 26.6361C102.581 26.5223 102.684 26.3641 102.73 26.1859C102.785 26.0148 102.827 25.8398 102.856 25.6625C102.856 25.521 102.893 25.3061 102.907 25.0189C102.921 24.7317 102.949 24.4955 102.975 24.3172L105.069 24.6991C105.058 25.2424 105.012 25.7844 104.933 26.3219C104.87 26.7291 104.745 27.1241 104.561 27.493C104.412 27.7992 104.202 28.0717 103.943 28.294C103.657 28.514 103.332 28.6791 102.986 28.7807C102.553 28.9123 102.107 28.9965 101.656 29.0318C101.175 29.0735 100.573 29.0944 99.8609 29.0944C99.0641 29.1024 98.2678 29.0499 97.4789 28.9376C96.8923 28.8529 96.3134 28.7216 95.7477 28.545C95.2906 28.4065 94.8811 28.1437 94.5649 27.7858C94.2843 27.4788 94.0385 27.1417 93.8322 26.7807C93.6179 26.3368 93.4849 25.858 93.4396 25.3672C93.3561 24.7495 93.3036 24.1844 93.2828 23.6767C93.2619 23.169 93.2461 22.4674 93.2461 21.5829C93.2461 20.3217 93.2461 19.3426 93.297 18.6414C93.3308 17.9376 93.42 17.2375 93.5638 16.5477C93.6455 15.9836 93.8531 15.4451 94.1713 14.9722C94.4736 14.6061 94.8455 14.3036 95.2655 14.0822C95.7969 13.7942 96.3808 13.6162 96.9825 13.5588C97.8136 13.4725 98.649 13.4341 99.4846 13.4437C100.094 13.4296 100.704 13.4506 101.312 13.5063C101.789 13.5373 102.261 13.6215 102.719 13.7573C103.085 13.8595 103.437 14.0071 103.766 14.1968C104.064 14.3787 104.316 14.6257 104.504 14.9193C104.713 15.2263 104.879 15.561 104.996 15.9137C105.133 16.3574 105.228 16.8132 105.279 17.2748C105.353 17.8461 105.398 18.4209 105.415 18.9968C105.462 19.5783 105.467 20.3024 105.467 21.168ZM95.9794 19.924H102.782C102.782 18.7529 102.719 17.6836 102.646 16.7162C102.651 16.4793 102.585 16.2464 102.456 16.0476C102.327 15.8488 102.142 15.6932 101.924 15.6011C101.137 15.3655 100.315 15.2699 99.4948 15.3185C98.6613 15.2662 97.8248 15.3404 97.0135 15.5385C96.8608 15.5832 96.722 15.6661 96.6103 15.7793C96.4809 15.9184 96.3844 16.0848 96.3277 16.2661C96.2584 16.4573 96.2024 16.6532 96.1601 16.8521C96.1092 17.1042 96.0751 17.3593 96.0583 17.6159C96.0583 17.9403 96.0216 18.1867 96.0109 18.3644C96.0003 18.5421 96.0109 18.8145 96.0109 19.1791C96.0109 19.5437 95.9743 19.7901 95.9743 19.9225L95.9794 19.924Z" fill="#404040"/>
<path d="M120.236 13.8672L115.263 28.8952H112.332L107.621 13.8672H110.155L113.821 26.5504L117.487 13.8672H120.236Z" fill="#404040"/>
<path d="M134.632 21.1681C133.54 21.2797 132.859 21.3426 132.591 21.3565H125.126C125.126 22.6803 125.163 24.1337 125.236 25.7166C125.231 25.9736 125.303 26.2264 125.443 26.442C125.583 26.6576 125.784 26.8262 126.021 26.9259C126.934 27.1769 127.882 27.276 128.827 27.2192C129.274 27.2241 129.722 27.2049 130.167 27.1616C130.48 27.135 130.787 27.0608 131.078 26.9417C131.271 26.8594 131.456 26.757 131.628 26.6362C131.772 26.5224 131.875 26.3642 131.921 26.186C131.976 26.0149 132.018 25.8399 132.047 25.6626C132.047 25.5211 132.078 25.3062 132.098 25.0185C132.117 24.7308 132.139 24.4951 132.165 24.3168L134.259 24.6987C134.251 25.2421 134.205 25.7843 134.123 26.3215C134.062 26.7284 133.938 27.1234 133.756 27.4926C133.604 27.7966 133.394 28.0684 133.139 28.2936C132.852 28.5125 132.527 28.6775 132.181 28.7803C131.748 28.9114 131.302 28.9955 130.852 29.0314C130.365 29.0731 129.768 29.094 129.056 29.094C128.26 29.102 127.463 29.0495 126.675 28.9372C126.088 28.853 125.509 28.7218 124.944 28.5446C124.485 28.405 124.074 28.1424 123.755 27.7854C123.476 27.4771 123.231 27.1402 123.022 26.7803C122.808 26.3368 122.676 25.8577 122.635 25.3668C122.551 24.7491 122.499 24.184 122.478 23.6763C122.457 23.1686 122.441 22.467 122.441 21.5825C122.441 20.3213 122.441 19.3421 122.488 18.641C122.522 17.9372 122.611 17.2371 122.755 16.5472C122.839 15.9978 123.041 15.473 123.347 15.0085C123.649 14.6424 124.021 14.3399 124.441 14.1185C124.971 13.8311 125.553 13.6531 126.153 13.595C126.986 13.5088 127.823 13.4704 128.66 13.4799C129.358 13.4799 129.965 13.5008 130.481 13.5426C130.96 13.573 131.435 13.6572 131.895 13.7936C132.261 13.8969 132.612 14.0446 132.942 14.2335C133.239 14.4154 133.491 14.6625 133.68 14.9561C133.887 15.2643 134.052 15.5987 134.171 15.9505C134.309 16.3942 134.403 16.8499 134.454 17.3115C134.527 17.8818 134.569 18.4526 134.59 19.0336C134.611 19.6146 134.632 20.2999 134.632 21.1681ZM125.142 19.9221H131.947C131.926 18.7496 131.879 17.6803 131.805 16.7143C131.811 16.4781 131.745 16.2456 131.618 16.0469C131.49 15.8481 131.305 15.6922 131.088 15.5992C130.3 15.3637 129.476 15.2681 128.654 15.3166C127.823 15.2646 126.988 15.3388 126.179 15.5365C126.026 15.5799 125.886 15.663 125.776 15.7774C125.646 15.9165 125.55 16.0828 125.493 16.2641C125.424 16.4561 125.367 16.6518 125.32 16.8502C125.27 17.1021 125.238 17.3574 125.226 17.614C125.226 17.9383 125.189 18.1848 125.179 18.3625C125.168 18.5402 125.179 18.8126 125.179 19.1772C125.179 19.5417 125.143 19.7933 125.143 19.9231L125.142 19.9221Z" fill="#404040"/>
<path d="M141.098 28.8949H138.402V8.53833L141.098 8.31836V28.8949Z" fill="#404040"/>
<path d="M151.289 29.1009C150.443 29.1096 149.597 29.0676 148.756 28.9751C148.145 28.9196 147.552 28.7412 147.012 28.4506C146.587 28.2256 146.207 27.9238 145.892 27.5606C145.581 27.1153 145.375 26.6052 145.29 26.0687C145.146 25.4037 145.057 24.7279 145.023 24.0483C144.992 23.3782 144.977 22.4779 144.977 21.2635C144.977 20.3791 144.977 19.6408 145.013 19.044C145.033 18.4606 145.086 17.8787 145.17 17.3011C145.227 16.8297 145.331 16.3651 145.479 15.9141C145.601 15.5559 145.778 15.2187 146.003 14.9141C146.209 14.6208 146.477 14.3762 146.788 14.1971C147.141 14.0097 147.515 13.8656 147.903 13.7679C148.387 13.6364 148.883 13.554 149.384 13.522C149.907 13.4802 150.555 13.4593 151.294 13.4593C151.932 13.4453 152.57 13.4662 153.205 13.522C153.706 13.554 154.202 13.6364 154.686 13.7679C155.074 13.8656 155.448 14.0097 155.801 14.1971C156.112 14.3774 156.382 14.6218 156.591 14.9141C156.812 15.2211 156.988 15.5577 157.115 15.9141C157.259 16.366 157.362 16.8303 157.42 17.3011C157.504 17.879 157.558 18.4607 157.583 19.044C157.583 19.6408 157.614 20.3786 157.614 21.2635C157.614 22.452 157.614 23.3573 157.568 24.0483C157.534 24.7279 157.445 25.4037 157.301 26.0687C157.212 26.6067 157.005 27.1181 156.693 27.5657C156.377 27.9295 155.995 28.2313 155.568 28.4557C155.026 28.7458 154.432 28.9238 153.82 28.9792C152.979 29.0699 152.134 29.1106 151.289 29.1009ZM151.32 27.2113C152.231 27.2294 153.14 27.1328 154.027 26.9236C154.247 26.8752 154.443 26.7514 154.582 26.5737C154.72 26.3959 154.793 26.1754 154.786 25.9501C154.884 24.6483 154.935 23.1377 154.939 21.4183C154.939 20.8531 154.913 20.0436 154.865 18.9845C154.818 17.9254 154.797 17.1473 154.797 16.6341C154.8 16.4893 154.775 16.3453 154.724 16.2099C154.673 16.0826 154.588 15.972 154.478 15.8907C154.369 15.8066 154.254 15.7313 154.133 15.6656C153.984 15.5867 153.823 15.535 153.656 15.5129L153.133 15.4187C152.934 15.3831 152.733 15.3639 152.531 15.3611H150.102C149.9 15.3639 149.699 15.3831 149.5 15.4187L148.977 15.5129C148.81 15.535 148.649 15.5867 148.5 15.6656C148.379 15.7313 148.264 15.8066 148.155 15.8907C148.045 15.972 147.959 16.0826 147.909 16.2099C147.858 16.3453 147.833 16.4893 147.836 16.6341C147.836 17.1575 147.836 17.932 147.767 18.9845C147.699 20.0369 147.699 20.8531 147.699 21.4183C147.699 23.1353 147.748 24.6459 147.846 25.9501C147.843 26.1829 147.922 26.4094 148.068 26.5908C148.214 26.7722 148.419 26.8972 148.647 26.9445C149.521 27.1592 150.421 27.249 151.32 27.2113H151.32Z" fill="#404040"/>
<path d="M173.737 21.4831C173.737 22.3207 173.737 23.0534 173.69 23.6186C173.66 24.2005 173.6 24.7806 173.512 25.3565C173.452 25.8433 173.323 26.3191 173.13 26.77C172.958 27.1474 172.735 27.4996 172.468 27.8168C172.202 28.1402 171.863 28.3951 171.479 28.5602C171.033 28.7472 170.568 28.8838 170.092 28.9676C169.481 29.0683 168.863 29.1157 168.244 29.1091C165.829 29.1091 164.451 28.5699 164.109 27.4915V33.9983L161.41 34.2076V13.8673H163.865L164.12 15.5216C164.681 14.1258 166.144 13.4279 168.506 13.4279C168.947 13.4258 169.387 13.4467 169.825 13.4905C170.194 13.5227 170.558 13.5982 170.909 13.7156C171.206 13.8122 171.495 13.9313 171.775 14.072C172.029 14.2029 172.256 14.3805 172.445 14.5954C172.639 14.8062 172.814 15.0338 172.968 15.2757C173.122 15.5484 173.238 15.8406 173.314 16.1444C173.41 16.4892 173.488 16.8386 173.55 17.1912C173.616 17.602 173.662 18.0161 173.686 18.4316C173.717 18.9184 173.736 19.3894 173.748 19.8395C173.76 20.2896 173.737 20.8446 173.737 21.4831ZM171.041 20.5931C171.02 18.7576 170.992 17.5356 170.958 16.927C170.97 16.6669 170.91 16.4085 170.783 16.1809C170.656 15.9534 170.468 15.7658 170.241 15.6393C169.398 15.3604 168.509 15.2483 167.624 15.3093C165.97 15.3093 164.907 15.571 164.441 16.1052C164.19 16.4769 164.059 17.5706 164.059 19.3766V22.5799C164.059 22.9099 164.059 23.3075 164.022 23.8101C163.986 24.3126 163.991 24.6635 163.991 24.857C163.968 25.3121 164.06 25.7657 164.257 26.1762C164.505 26.5462 164.876 26.8155 165.304 26.9354C166.037 27.1486 166.798 27.2423 167.561 27.2129C168.471 27.2715 169.385 27.1615 170.256 26.8886C170.78 26.6477 171.01 25.4232 171.01 23.2225V21.8289C171.048 21.4183 171.065 21.006 171.061 20.5936L171.041 20.5931Z" fill="#404040"/>
<path d="M189.348 21.1696C188.248 21.2812 187.568 21.344 187.306 21.358H179.835C179.835 22.6818 179.871 24.1352 179.945 25.7181C179.939 25.9757 180.012 26.2289 180.153 26.4446C180.294 26.6603 180.497 26.8286 180.735 26.9274C181.646 27.1785 182.592 27.2776 183.535 27.2207C183.983 27.2257 184.43 27.2065 184.875 27.1631C185.189 27.1371 185.496 27.0629 185.786 26.9432C185.98 26.8621 186.165 26.7596 186.336 26.6377C186.48 26.5239 186.583 26.3657 186.629 26.1875C186.686 26.0171 186.728 25.8419 186.755 25.6641C186.755 25.5225 186.791 25.3077 186.806 25.0205C186.82 24.7333 186.847 24.4971 186.873 24.3188L188.967 24.7007C188.956 25.244 188.911 25.786 188.831 26.3235C188.768 26.7307 188.643 27.1257 188.46 27.4946C188.31 27.8007 188.1 28.0733 187.842 28.2956C187.556 28.5156 187.231 28.6807 186.884 28.7823C186.451 28.9139 186.006 28.9981 185.555 29.0334C185.073 29.0751 184.477 29.096 183.764 29.096C182.966 29.1041 182.168 29.0517 181.377 28.9392C180.791 28.8545 180.212 28.7232 179.646 28.5466C179.189 28.4081 178.78 28.1453 178.463 27.7874C178.183 27.4804 177.937 27.1433 177.731 26.7823C177.516 26.3383 177.383 25.8596 177.338 25.3688C177.254 24.7511 177.202 24.1859 177.181 23.6783C177.16 23.1706 177.145 22.469 177.145 21.5845C177.145 20.3228 177.145 19.3441 177.195 18.643C177.229 17.9392 177.318 17.2391 177.462 16.5492C177.545 16.0003 177.745 15.4755 178.048 15.0105C178.351 14.6444 178.723 14.3419 179.143 14.1204C179.674 13.8325 180.258 13.6545 180.86 13.597C181.692 13.5107 182.529 13.4722 183.367 13.4819C184.065 13.4819 184.672 13.5028 185.189 13.5446C185.666 13.5757 186.138 13.66 186.596 13.7961C186.962 13.8984 187.314 14.0462 187.643 14.236C187.941 14.4178 188.193 14.6649 188.382 14.9586C188.6 15.265 188.776 15.5995 188.905 15.953C189.038 16.3976 189.131 16.853 189.183 17.314C189.257 17.8854 189.302 18.4601 189.319 19.0361C189.337 19.5789 189.348 20.3014 189.348 21.1696ZM179.852 19.9236H186.658C186.658 18.7511 186.612 17.6818 186.522 16.7157C186.527 16.4789 186.461 16.246 186.332 16.0471C186.203 15.8483 186.017 15.6928 185.799 15.6006C185.012 15.3651 184.19 15.2694 183.37 15.318C182.537 15.2657 181.7 15.3399 180.889 15.538C180.737 15.5839 180.598 15.6667 180.486 15.7788C180.356 15.918 180.26 16.0843 180.203 16.2656C180.13 16.4504 180.067 16.6391 180.015 16.8308C179.964 17.0828 179.93 17.338 179.913 17.5946C179.913 17.9189 179.876 18.1654 179.866 18.3431C179.855 18.5208 179.866 18.7932 179.866 19.1578C179.866 19.5223 179.85 19.7912 179.85 19.9215L179.852 19.9236Z" fill="#404040"/>
<path d="M199.703 13.5222L199.593 15.8095C199.267 15.7671 198.938 15.7443 198.609 15.7412C198.079 15.7282 197.55 15.7934 197.038 15.9347C196.666 16.0407 196.343 16.2753 196.128 16.5967C195.917 16.9124 195.776 17.2692 195.714 17.6435C195.637 18.172 195.603 18.7058 195.612 19.2398C195.612 19.6166 195.612 20.1665 195.66 20.8834C195.707 21.6004 195.706 22.1238 195.706 22.4538V28.9076H193.008V13.8679H195.463L195.735 15.5533C195.995 14.9225 196.445 14.3885 197.023 14.0258C197.648 13.6585 198.365 13.4769 199.09 13.5024C199.295 13.4963 199.499 13.503 199.703 13.5222Z" fill="#404040"/>
<path d="M213.704 24.7315C213.724 25.4611 213.626 26.189 213.416 26.8879C213.244 27.4218 212.911 27.8896 212.464 28.2281C211.981 28.5705 211.428 28.8027 210.846 28.9084C210.053 29.0519 209.249 29.1167 208.444 29.1019H207.077C206.737 29.1019 206.339 29.0703 205.894 29.0336C205.541 29.0095 205.19 28.9534 204.847 28.8661C204.554 28.7783 204.268 28.6716 203.989 28.5468C203.712 28.4311 203.466 28.2518 203.272 28.0234C203.083 27.7949 202.918 27.5475 202.78 27.2851C202.613 26.9717 202.501 26.6316 202.45 26.28C202.384 25.8434 202.352 25.4022 202.356 24.9607L204.475 24.4372C204.497 25.1038 204.594 25.7658 204.764 26.4108C204.862 26.6095 205.01 26.7794 205.194 26.9042C205.377 27.0291 205.59 27.1046 205.811 27.1237C206.633 27.231 207.463 27.2712 208.292 27.2439C208.857 27.2567 209.423 27.2227 209.982 27.142C210.127 27.1298 210.268 27.0888 210.396 27.0213C210.525 26.9539 210.638 26.8615 210.731 26.7494C211.097 26.4511 211.254 25.42 211.254 23.6663C211.26 23.4303 211.202 23.1971 211.087 22.9912C210.992 22.8182 210.856 22.6722 210.689 22.567C210.487 22.4505 210.268 22.3675 210.04 22.3211C209.792 22.2584 209.54 22.2111 209.286 22.1795L208.386 22.0645C208.019 22.0329 207.732 21.9962 207.512 21.9703C206.842 21.8969 206.302 21.8287 205.878 21.761C205.448 21.6866 205.022 21.5833 204.605 21.4519C204.241 21.3407 203.9 21.1632 203.6 20.9285C203.338 20.706 203.114 20.4426 202.936 20.1484C202.72 19.7961 202.576 19.4047 202.512 18.9966C202.422 18.4675 202.38 17.9314 202.386 17.3948C202.374 16.8295 202.443 16.2654 202.59 15.7195C202.708 15.3024 202.913 14.9152 203.192 14.5836C203.492 14.2628 203.865 14.0202 204.28 13.8768C204.789 13.6985 205.315 13.5789 205.851 13.5204C206.546 13.447 207.245 13.413 207.945 13.4186H209.222C209.59 13.4266 209.957 13.458 210.321 13.5128C210.649 13.5483 210.972 13.6203 211.284 13.7276C211.548 13.8243 211.8 13.9526 212.033 14.1095C212.273 14.2614 212.473 14.47 212.614 14.717C212.762 14.9965 212.875 15.2937 212.949 15.6014C213.042 15.9922 213.086 16.3932 213.08 16.7949L211.242 17.355C211.206 16.9986 211.174 16.7165 211.141 16.5123C211.106 16.3118 211.033 16.1198 210.926 15.9472C210.842 15.7993 210.725 15.6723 210.586 15.5755C210.393 15.4792 210.187 15.4139 209.975 15.382C209.688 15.3296 209.397 15.2981 209.105 15.2878H207.844C207.035 15.2275 206.224 15.3474 205.467 15.6386C205.265 15.75 205.098 15.9172 204.988 16.1204C204.877 16.3235 204.828 16.5541 204.844 16.7848V18.1774C204.844 18.7848 205.022 19.1667 205.368 19.3235C206.314 19.5978 207.287 19.7732 208.27 19.847C208.432 19.8785 208.558 19.8938 208.642 19.9045C209.27 19.9778 209.767 20.0461 210.139 20.1082C210.51 20.1703 210.897 20.2548 211.31 20.3592C211.639 20.4349 211.955 20.5602 212.247 20.7309C212.478 20.8837 212.694 21.059 212.891 21.2544C213.11 21.4823 213.27 21.7609 213.357 22.0655C213.46 22.4295 213.539 22.8002 213.592 23.175C213.666 23.6906 213.704 24.2107 213.704 24.7315Z" fill="#404040"/>
<path d="M35.8428 16.4318L19.411 0V9.79156L28.0574 18.41L18.332 28.1501L19.4278 29.2077V36.8199L35.8428 20.4243C36.1054 20.1622 36.3138 19.8509 36.456 19.5082C36.5982 19.1655 36.6714 18.7981 36.6714 18.427C36.6714 18.056 36.5982 17.6886 36.456 17.3459C36.3138 17.0031 36.1054 16.6918 35.8428 16.4298V16.4318Z" fill="#404040"/>
<path d="M0.828612 24.483L17.2604 40.9148V31.1212L8.61654 22.4814L18.3307 12.7626L17.2344 11.7051V4.08008L0.828612 20.4864C0.565948 20.7485 0.35756 21.0598 0.215374 21.4025C0.0731882 21.7452 0 22.1126 0 22.4837C0 22.8547 0.0731882 23.2221 0.215374 23.5648C0.35756 23.9076 0.565948 24.2189 0.828612 24.4809V24.483Z" fill="#207144"/>
</g>
<defs>
<clipPath id="clip0_5983_3525">
<rect width="213.707" height="40.9127" fill="white"/>
</clipPath>
</defs>
</svg>
